<svg width="67" height="98" viewBox="0 0 67 98" fill="none" xmlns="http://www.w3.org/2000/svg">
<path d="M63.8222 63.8218C64.8722 64.8718 64.1278 66.6663 62.6444 66.6663H35C34.0778 66.6663 33.3333 67.4107 33.3333 68.3329V95.9774C33.3333 97.4607 31.5389 98.2052 30.4889 97.1552L0.65 67.3163C0.233333 66.8996 0 66.3329 0 65.7441V34.9996C0 34.0774 0.744444 33.3329 1.66667 33.3329H33.3333L63.8222 63.8218Z" fill="white"/>
<path d="M33.3333 33.333L2.84441 2.84408C1.79441 1.79408 2.53885 -0.000366211 4.02219 -0.000366211H65C65.9222 -0.000366211 66.6666 0.744078 66.6666 1.6663V31.6663C66.6666 32.5885 65.9222 33.333 65 33.333H33.3333Z" fill="white"/>
</svg>
