<svg width="100" height="19" viewBox="0 0 100 19" fill="none" xmlns="http://www.w3.org/2000/svg">
<path d="M97.7327 5.54846C97.6992 5.04634 97.5821 4.56932 97.3812 4.11741C97.1971 3.6655 96.9377 3.28054 96.6029 2.96253C96.2849 2.62778 95.8999 2.36835 95.448 2.18424C95.0129 1.98339 94.5275 1.88296 93.9919 1.88296C93.4395 1.88296 92.9374 1.98339 92.4855 2.18424C92.0503 2.36835 91.6737 2.62778 91.3557 2.96253C91.0377 3.29728 90.7866 3.69061 90.6025 4.14252C90.4184 4.57769 90.3096 5.04634 90.2762 5.54846H97.7327ZM99.7914 9.16375C99.5069 10.6199 98.8792 11.7162 97.9084 12.4527C96.9377 13.1891 95.7158 13.5573 94.2429 13.5573C93.2052 13.5573 92.3014 13.39 91.5315 13.0552C90.7783 12.7205 90.1423 12.2518 89.6234 11.6493C89.1045 11.0467 88.7112 10.327 88.4434 9.49013C88.1923 8.65326 88.0501 7.74107 88.0166 6.75356C88.0166 5.76605 88.1672 4.86223 88.4685 4.04209C88.7698 3.22196 89.1882 2.51062 89.7238 1.90807C90.2762 1.30552 90.9206 0.836873 91.657 0.502125C92.4102 0.167375 93.2303 0 94.1174 0C95.2723 0 96.2263 0.242693 96.9795 0.72808C97.7494 1.19673 98.3603 1.79927 98.8123 2.53572C99.2809 3.27217 99.5989 4.07557 99.7663 4.94591C99.9504 5.81626 100.026 6.64476 99.9922 7.43142H90.2762C90.2594 8.0005 90.3264 8.54447 90.477 9.06332C90.6276 9.56545 90.8703 10.0174 91.2051 10.4191C91.5398 10.804 91.9666 11.1137 92.4855 11.348C93.0044 11.5823 93.6153 11.6995 94.3183 11.6995C95.2221 11.6995 95.9585 11.4903 96.5276 11.0718C97.1134 10.6534 97.4984 10.0174 97.6825 9.16375H99.7914Z" fill="#880000"/>
<path d="M79.8797 9.18886C79.8965 9.6575 80.0053 10.0592 80.2061 10.394C80.407 10.712 80.6664 10.9714 80.9844 11.1722C81.3192 11.3564 81.6874 11.4903 82.0891 11.5739C82.5075 11.6576 82.9343 11.6995 83.3695 11.6995C83.7043 11.6995 84.0557 11.6744 84.424 11.6242C84.7922 11.5739 85.1269 11.4819 85.4282 11.348C85.7462 11.2141 86.0057 11.0216 86.2065 10.7705C86.4074 10.5027 86.5078 10.168 86.5078 9.7663C86.5078 9.21396 86.2986 8.79553 85.8801 8.51099C85.4617 8.22645 84.9345 8.0005 84.2984 7.83312C83.6792 7.64901 83.0013 7.49001 82.2648 7.35611C81.5284 7.20547 80.8422 7.00462 80.2061 6.75356C79.5868 6.48576 79.068 6.11754 78.6495 5.64889C78.2311 5.18024 78.0219 4.52748 78.0219 3.69061C78.0219 3.03785 78.1642 2.47714 78.4487 2.00849C78.75 1.53984 79.1266 1.16325 79.5785 0.878716C80.0471 0.577442 80.566 0.359855 81.1351 0.225955C81.7209 0.075318 82.2983 0 82.8674 0C83.6038 0 84.2817 0.0669499 84.901 0.20085C85.5203 0.318012 86.0642 0.535599 86.5329 0.853609C87.0183 1.15488 87.4032 1.57332 87.6878 2.10892C87.9723 2.62778 88.1397 3.28054 88.1899 4.0672H86.0559C86.0224 3.64876 85.9136 3.30564 85.7295 3.03785C85.5454 2.75331 85.3111 2.52735 85.0265 2.35998C84.742 2.19261 84.424 2.07544 84.0725 2.00849C83.7377 1.92481 83.3946 1.88296 83.0431 1.88296C82.7251 1.88296 82.3987 1.90807 82.064 1.95828C81.746 2.00849 81.4531 2.10055 81.1853 2.23445C80.9175 2.35161 80.6999 2.51899 80.5325 2.73657C80.3651 2.93742 80.2814 3.20522 80.2814 3.53997C80.2814 3.90819 80.407 4.21784 80.658 4.4689C80.9258 4.70322 81.2606 4.90407 81.6623 5.07144C82.064 5.22208 82.5159 5.35598 83.018 5.47314C83.5201 5.57357 84.0223 5.68236 84.5244 5.79952C85.06 5.91669 85.5788 6.05895 86.081 6.22633C86.5998 6.3937 87.0517 6.61966 87.4367 6.90419C87.8384 7.17199 88.1564 7.51511 88.3907 7.93355C88.6418 8.35198 88.7673 8.87084 88.7673 9.49013C88.7673 10.2768 88.6 10.9295 88.2652 11.4484C87.9472 11.9673 87.5204 12.3857 86.9848 12.7037C86.4659 13.0217 85.8718 13.2393 85.2023 13.3565C84.5495 13.4904 83.8967 13.5573 83.244 13.5573C82.5243 13.5573 81.838 13.482 81.1853 13.3314C80.5325 13.1807 79.9551 12.938 79.4529 12.6033C78.9508 12.2518 78.5491 11.7999 78.2478 11.2476C77.9466 10.6785 77.7792 9.99225 77.7457 9.18886H79.8797Z" fill="#880000"/>
<path d="M68.1219 6.80377C68.1219 7.59043 68.2223 8.2934 68.4231 8.91269C68.6407 9.51523 68.9336 10.0257 69.3018 10.4442C69.6701 10.8459 70.0969 11.1555 70.5823 11.3731C71.0844 11.5907 71.6116 11.6995 72.1639 11.6995C72.7163 11.6995 73.2351 11.5907 73.7205 11.3731C74.2227 11.1555 74.6578 10.8459 75.026 10.4442C75.3943 10.0257 75.6788 9.51523 75.8797 8.91269C76.0972 8.2934 76.206 7.59043 76.206 6.80377C76.206 6.01711 76.0972 5.32251 75.8797 4.71996C75.6788 4.10067 75.3943 3.58181 75.026 3.16338C74.6578 2.74494 74.2227 2.42693 73.7205 2.20934C73.2351 1.99176 72.7163 1.88296 72.1639 1.88296C71.6116 1.88296 71.0844 1.99176 70.5823 2.20934C70.0969 2.42693 69.6701 2.74494 69.3018 3.16338C68.9336 3.58181 68.6407 4.10067 68.4231 4.71996C68.2223 5.32251 68.1219 6.01711 68.1219 6.80377ZM65.8623 6.80377C65.8623 5.84974 65.9962 4.96265 66.264 4.14252C66.5318 3.30565 66.9335 2.58594 67.4691 1.98339C68.0047 1.3641 68.6658 0.878716 69.4525 0.52723C70.2391 0.175743 71.143 0 72.1639 0C73.2017 0 74.1055 0.175743 74.8754 0.52723C75.6621 0.878716 76.3232 1.3641 76.8588 1.98339C77.3944 2.58594 77.7961 3.30565 78.0639 4.14252C78.3317 4.96265 78.4656 5.84974 78.4656 6.80377C78.4656 7.7578 78.3317 8.64489 78.0639 9.46502C77.7961 10.2852 77.3944 11.0049 76.8588 11.6242C76.3232 12.2267 75.6621 12.7037 74.8754 13.0552C74.1055 13.39 73.2017 13.5573 72.1639 13.5573C71.143 13.5573 70.2391 13.39 69.4525 13.0552C68.6658 12.7037 68.0047 12.2267 67.4691 11.6242C66.9335 11.0049 66.5318 10.2852 66.264 9.46502C65.9962 8.64489 65.8623 7.7578 65.8623 6.80377Z" fill="#880000"/>
<path d="M56.1133 6.80377C56.1133 7.59043 56.2137 8.2934 56.4146 8.91269C56.6322 9.51523 56.9251 10.0257 57.2933 10.4442C57.6615 10.8459 58.0883 11.1555 58.5737 11.3731C59.0758 11.5907 59.6031 11.6995 60.1554 11.6995C60.7077 11.6995 61.2266 11.5907 61.712 11.3731C62.2141 11.1555 62.6493 10.8459 63.0175 10.4442C63.3857 10.0257 63.6703 9.51523 63.8711 8.91269C64.0887 8.2934 64.1975 7.59043 64.1975 6.80377C64.1975 6.01711 64.0887 5.32251 63.8711 4.71996C63.6703 4.10067 63.3857 3.58181 63.0175 3.16338C62.6493 2.74494 62.2141 2.42693 61.712 2.20934C61.2266 1.99176 60.7077 1.88296 60.1554 1.88296C59.6031 1.88296 59.0758 1.99176 58.5737 2.20934C58.0883 2.42693 57.6615 2.74494 57.2933 3.16338C56.9251 3.58181 56.6322 4.10067 56.4146 4.71996C56.2137 5.32251 56.1133 6.01711 56.1133 6.80377ZM53.8538 6.80377C53.8538 5.84974 53.9877 4.96265 54.2555 4.14252C54.5233 3.30565 54.925 2.58594 55.4606 1.98339C55.9962 1.3641 56.6573 0.878716 57.4439 0.52723C58.2306 0.175743 59.1344 0 60.1554 0C61.1931 0 62.097 0.175743 62.8669 0.52723C63.6535 0.878716 64.3147 1.3641 64.8503 1.98339C65.3859 2.58594 65.7876 3.30565 66.0554 4.14252C66.3232 4.96265 66.4571 5.84974 66.4571 6.80377C66.4571 7.7578 66.3232 8.64489 66.0554 9.46502C65.7876 10.2852 65.3859 11.0049 64.8503 11.6242C64.3147 12.2267 63.6535 12.7037 62.8669 13.0552C62.097 13.39 61.1931 13.5573 60.1554 13.5573C59.1344 13.5573 58.2306 13.39 57.4439 13.0552C56.6573 12.7037 55.9962 12.2267 55.4606 11.6242C54.925 11.0049 54.5233 10.2852 54.2555 9.46502C53.9877 8.64489 53.8538 7.7578 53.8538 6.80377Z" fill="#880000"/>
<path d="M53.7449 12.1765C53.7449 14.3021 53.2595 15.8922 52.2888 16.9467C51.318 18.0011 49.7949 18.5283 47.7194 18.5283C47.1169 18.5283 46.4976 18.4614 45.8616 18.3275C45.2423 18.1936 44.6732 17.976 44.1544 17.6747C43.6522 17.3735 43.2338 16.9801 42.8991 16.4947C42.5643 16.0094 42.3802 15.4152 42.3467 14.7122H44.4808C44.4975 15.0972 44.6147 15.4236 44.8322 15.6914C45.0666 15.9592 45.3427 16.1767 45.6607 16.3441C45.9955 16.5115 46.3553 16.6286 46.7403 16.6956C47.1253 16.7793 47.4935 16.8211 47.845 16.8211C48.5479 16.8211 49.1421 16.6956 49.6275 16.4445C50.1129 16.2102 50.5146 15.8755 50.8326 15.4403C51.1506 15.0219 51.3766 14.5114 51.5105 13.9088C51.6611 13.3063 51.7364 12.6451 51.7364 11.9254V11.0718H51.6862C51.318 11.8752 50.7573 12.4694 50.0041 12.8544C49.2677 13.2226 48.481 13.4067 47.6441 13.4067C46.6734 13.4067 45.8281 13.2309 45.1084 12.8795C44.3887 12.528 43.7861 12.0593 43.3008 11.4735C42.8154 10.871 42.4472 10.1764 42.1961 9.38971C41.9618 8.58631 41.8446 7.74107 41.8446 6.85398C41.8446 6.08406 41.945 5.2974 42.1459 4.494C42.3467 3.67387 42.6815 2.93742 43.1501 2.28466C43.6188 1.61516 44.2381 1.0712 45.008 0.652761C45.7779 0.217587 46.7236 0 47.845 0C48.6651 0 49.4183 0.184111 50.1045 0.552335C50.7908 0.903822 51.3264 1.43942 51.7113 2.15913H51.7364V0.301274H53.7449V12.1765ZM47.7697 11.5488C48.4726 11.5488 49.0668 11.4066 49.5522 11.122C50.0543 10.8208 50.456 10.4358 50.7573 9.96715C51.0586 9.48176 51.2762 8.93779 51.4101 8.33525C51.5607 7.7327 51.636 7.13015 51.636 6.5276C51.636 5.95853 51.5691 5.39782 51.4352 4.84549C51.3013 4.29315 51.0837 3.7994 50.7824 3.36423C50.4979 2.91231 50.1213 2.55246 49.6526 2.28466C49.184 2.01686 48.6149 1.88296 47.9454 1.88296C47.2592 1.88296 46.6734 2.01686 46.188 2.28466C45.7026 2.53572 45.3009 2.87884 44.9829 3.31401C44.6816 3.74919 44.4556 4.25131 44.305 4.82038C44.1711 5.38946 44.1042 5.98364 44.1042 6.60292C44.1042 7.18873 44.1627 7.77454 44.2799 8.36035C44.3971 8.94616 44.5979 9.48176 44.8825 9.96715C45.167 10.4358 45.5436 10.8208 46.0122 11.122C46.4809 11.4066 47.0667 11.5488 47.7697 11.5488Z" fill="#880000"/>
<path d="M31.0048 0.301274H33.0133V2.35998H33.0635C33.9506 0.78666 35.3565 0 37.2813 0C38.1349 0 38.8463 0.117163 39.4153 0.351487C39.9844 0.585811 40.4447 0.912191 40.7962 1.33063C41.1477 1.74906 41.3903 2.25119 41.5242 2.837C41.6749 3.40607 41.7502 4.04209 41.7502 4.74507V13.2812H39.6162V4.494C39.6162 3.69061 39.3819 3.05458 38.9132 2.58593C38.4446 2.11729 37.8002 1.88296 36.98 1.88296C36.3273 1.88296 35.7582 1.98339 35.2728 2.18424C34.8042 2.38509 34.4108 2.66962 34.0928 3.03785C33.7748 3.40607 33.5321 3.84124 33.3647 4.34337C33.2141 4.82875 33.1388 5.36435 33.1388 5.95016V13.2812H31.0048V0.301274Z" fill="#880000"/>
<path d="M20.5529 6.80377C20.5529 7.59043 20.6533 8.2934 20.8542 8.91269C21.0717 9.51523 21.3647 10.0257 21.7329 10.4442C22.1011 10.8459 22.5279 11.1555 23.0133 11.3731C23.5154 11.5907 24.0426 11.6995 24.595 11.6995C25.1473 11.6995 25.6662 11.5907 26.1516 11.3731C26.6537 11.1555 27.0889 10.8459 27.4571 10.4442C27.8253 10.0257 28.1098 9.51523 28.3107 8.91269C28.5283 8.2934 28.6371 7.59043 28.6371 6.80377C28.6371 6.01711 28.5283 5.32251 28.3107 4.71996C28.1098 4.10067 27.8253 3.58181 27.4571 3.16338C27.0889 2.74494 26.6537 2.42693 26.1516 2.20934C25.6662 1.99176 25.1473 1.88296 24.595 1.88296C24.0426 1.88296 23.5154 1.99176 23.0133 2.20934C22.5279 2.42693 22.1011 2.74494 21.7329 3.16338C21.3647 3.58181 21.0717 4.10067 20.8542 4.71996C20.6533 5.32251 20.5529 6.01711 20.5529 6.80377ZM18.2933 6.80377C18.2933 5.84974 18.4272 4.96265 18.695 4.14252C18.9628 3.30565 19.3645 2.58594 19.9001 1.98339C20.4357 1.3641 21.0969 0.878716 21.8835 0.52723C22.6702 0.175743 23.574 0 24.595 0C25.6327 0 26.5365 0.175743 27.3064 0.52723C28.0931 0.878716 28.7542 1.3641 29.2898 1.98339C29.8254 2.58594 30.2271 3.30565 30.4949 4.14252C30.7627 4.96265 30.8966 5.84974 30.8966 6.80377C30.8966 7.7578 30.7627 8.64489 30.4949 9.46502C30.2271 10.2852 29.8254 11.0049 29.2898 11.6242C28.7542 12.2267 28.0931 12.7037 27.3064 13.0552C26.5365 13.39 25.6327 13.5573 24.595 13.5573C23.574 13.5573 22.6702 13.39 21.8835 13.0552C21.0969 12.7037 20.4357 12.2267 19.9001 11.6242C19.3645 11.0049 18.9628 10.2852 18.695 9.46502C18.4272 8.64489 18.2933 7.7578 18.2933 6.80377Z" fill="#880000"/>
<path d="M0 0.301274H2.00849V2.20934H2.05871C3.02948 0.736447 4.42705 0 6.25144 0C7.05483 0 7.78291 0.167375 8.43567 0.502125C9.08843 0.836873 9.54871 1.40595 9.81651 2.20934C10.2517 1.50637 10.8208 0.962403 11.5237 0.577442C12.2434 0.192481 13.0301 0 13.8837 0C14.5365 0 15.1223 0.075318 15.6411 0.225955C16.1767 0.359855 16.6286 0.577442 16.9969 0.878716C17.3818 1.17999 17.6747 1.57332 17.8756 2.05871C18.0932 2.52735 18.202 3.09643 18.202 3.76592V13.2812H16.0679V4.77017C16.0679 4.36847 16.0345 3.99188 15.9675 3.64039C15.9006 3.28891 15.775 2.98763 15.5909 2.73657C15.4068 2.46877 15.1474 2.25956 14.8126 2.10892C14.4946 1.95828 14.0762 1.88296 13.5573 1.88296C12.5029 1.88296 11.6744 2.18424 11.0718 2.78678C10.4693 3.38933 10.168 4.19273 10.168 5.19698V13.2812H8.03397V4.77017C8.03397 4.35173 7.99213 3.96677 7.90844 3.61529C7.84149 3.2638 7.71596 2.96253 7.53185 2.71147C7.34774 2.44367 7.09668 2.24282 6.77866 2.10892C6.47739 1.95828 6.08406 1.88296 5.59867 1.88296C4.97939 1.88296 4.44379 2.00849 3.99188 2.25956C3.55671 2.51062 3.19685 2.81189 2.91232 3.16338C2.64452 3.51486 2.44367 3.88309 2.30977 4.26805C2.1926 4.63627 2.13402 4.94591 2.13402 5.19698V13.2812H0V0.301274Z" fill="#880000"/>
</svg>
